# xmcd CD database file
#
# Track frame offsets:
#	150
#	23035
#	56039
#	92906
#	119816
#	145063
#	179991
#	208686
#	232663
#	261766
#	297730
#
# Disc length: 4728 seconds
#
# Revision: 0
# Processed by: cddbd v1.5.2PL0 Copyright (c) Steve Scherf et al.
# Submitted via: CDex 1.70beta2
#
DISCID=ae12760b
DTITLE=Various Artist - Improvise On The Modes - Vol. 2
DYEAR=1900
DGENRE=Jazz
TTITLE0=Harm's Way - Harmonic Minor (Ray Gallon)
TTITLE1=Mixo - Mixolydian (Pat O'Leary)
TTITLE2=Ice Box - Phrygian (Ray Gallon)
TTITLE3=Loki - Locrian (Pat O'Leary)
TTITLE4=Dim Wit - Diminished (Ray Gallon)
TTITLE5=Lydia - Lydian (Pat O'Leary)
TTITLE6=Bix Lix - Whole Tone (Pat O'Leary)
TTITLE7=Three More Minors - Melodic Minor (Pat O'Leary)
TTITLE8=Altered State - Altered Scale (Ray Gallon)
TTITLE9=Open the Door Ian - Dorian (Ray Gallon)
TTITLE10=Data Track 11
EXTD=
EXTT0=
EXTT1=
EXTT2=
EXTT3=
EXTT4=
EXTT5=
EXTT6=
EXTT7=
EXTT8=
EXTT9=
EXTT10=
PLAYORDER=
